<svg width="100%" viewBox="0 0 1600 1120" role="img" xmlns="http://www.w3.org/2000/svg" xmlns:xlink="http://www.w3.org/1999/xlink" font-family="'Anthropic Sans', -apple-system, system-ui, 'Segoe UI', sans-serif">
<title>Seer — how data flows: from employee LLM surfaces, through the Seer coach on Google Cloud, to tier-separated insights</title>
<desc>Marketing-oriented data-flow diagram of Seer. Left: where employees already use AI (browser extension across six LLM vendors and a hosted Open WebUI). Middle: the Seer coach (pre-flight block, post-flight flag, follow-up nudge) running on Google Cloud in the EU (Cloud Run, Firestore, europe-west1). Right: a privacy firewall separates employees (see their own sessions) from the employer (sees aggregates and AI-generated insights only).</desc>

<defs>
  <marker id="arrow" viewBox="0 0 10 10" refX="8" refY="5" markerWidth="6" markerHeight="6" orient="auto-start-reverse">
    <path d="M2 1L8 5L2 9" fill="none" stroke="context-stroke" stroke-width="1.6" stroke-linecap="round" stroke-linejoin="round"/>
  </marker>

  <linearGradient id="title-underline" x1="0" x2="1" y1="0" y2="0">
    <stop offset="0" stop-color="#534AB7"/>
    <stop offset="0.5" stop-color="#0F6E56"/>
    <stop offset="1" stop-color="#B94A4A"/>
  </linearGradient>

  <!-- ============ BRAND LOGO SYMBOLS (viewBox 0 0 24 24) ============ -->
  <symbol id="logo-openai" viewBox="0 0 24 24">
    <path d="M22.2819 9.8211a5.9847 5.9847 0 0 0-.5157-4.9108 6.0462 6.0462 0 0 0-6.5098-2.9A6.0651 6.0651 0 0 0 4.9807 4.1818a5.9847 5.9847 0 0 0-3.9977 2.9 6.0462 6.0462 0 0 0 .7427 7.0966 5.98 5.98 0 0 0 .511 4.9107 6.051 6.051 0 0 0 6.5146 2.9001A5.9847 5.9847 0 0 0 13.2599 24a6.0557 6.0557 0 0 0 5.7718-4.2058 5.9894 5.9894 0 0 0 3.9977-2.9001 6.0557 6.0557 0 0 0-.7475-7.0729zm-9.022 12.6081a4.4755 4.4755 0 0 1-2.8764-1.0408l.1419-.0804 4.7783-2.7582a.7948.7948 0 0 0 .3927-.6813v-6.7369l2.02 1.1686a.071.071 0 0 1 .038.052v5.5826a4.504 4.504 0 0 1-4.4945 4.4944zm-9.6607-4.1254a4.4708 4.4708 0 0 1-.5346-3.0137l.142.0852 4.783 2.7582a.7712.7712 0 0 0 .7806 0l5.8428-3.3685v2.3324a.0804.0804 0 0 1-.0332.0615L9.74 19.9502a4.4992 4.4992 0 0 1-6.1408-1.6464zM2.3408 7.8956a4.485 4.485 0 0 1 2.3655-1.9728V11.6a.7664.7664 0 0 0 .3879.6765l5.8144 3.3543-2.0201 1.1685a.0757.0757 0 0 1-.071 0l-4.8303-2.7865A4.504 4.504 0 0 1 2.3408 7.872zm16.5963 3.8558L13.1038 8.364 15.1192 7.2a.0757.0757 0 0 1 .071 0l4.8303 2.7913a4.4944 4.4944 0 0 1-.6765 8.1042v-5.6772a.79.79 0 0 0-.407-.667zm2.0107-3.0231l-.142-.0852-4.7735-2.7818a.7759.7759 0 0 0-.7854 0L9.409 9.2297V6.8974a.0662.0662 0 0 1 .0284-.0615l4.8303-2.7866a4.4992 4.4992 0 0 0 6.6802 4.66zM8.3065 12.863l-2.02-1.1638a.0804.0804 0 0 1-.038-.0567V6.0742a4.4992 4.4992 0 0 1 7.3757-3.4537l-.142.0805L8.704 5.459a.7948.7948 0 0 0-.3927.6813zm1.0976-2.3654l2.602-1.4998 2.6069 1.4998v2.9994l-2.5974 1.4997-2.6067-1.4997Z"/>
  </symbol>

  <symbol id="logo-claude" viewBox="0 0 24 24">
    <path d="m4.7144 15.9555 4.7174-2.6471.079-.2307-.079-.1275h-.2307l-.7893-.0486-2.6956-.0729-2.3375-.0971-2.2646-.1214-.5707-.1215-.5343-.7042.0546-.3522.4797-.3218.686.0608 1.5179.1032 2.2767.1578 1.6514.0972 2.4468.255h.3886l.0546-.1579-.1336-.0971-.1032-.0972L6.973 9.8356l-2.55-1.6879-1.3356-.9714-.7225-.4918-.3643-.4614-.1578-1.0078.6557-.7225.8803.0607.2246.0607.8925.686 1.9064 1.4754 2.4893 1.8336.3643.3035.1457-.1032.0182-.0728-.164-.2733-1.3539-2.4467-1.445-2.4893-.6435-1.032-.17-.6194c-.0607-.255-.1032-.4674-.1032-.7285L6.287.1335 6.6997 0l.9957.1336.419.3642.6192 1.4147 1.0018 2.2282 1.5543 3.0296.4553.8985.2429.8318.091.255h.1579v-.1457l.1275-1.706.2368-2.0947.2307-2.6957.0789-.7589.3764-.9107.7468-.4918.5828.2793.4797.686-.0668.4433-.2853 1.8517-.5586 2.9021-.3643 1.9429h.2125l.2429-.2429.9835-1.3053 1.6514-2.0643.7286-.8196.85-.9046.5464-.4311h1.0321l.759 1.1293-.34 1.1657-1.0625 1.3478-.8804 1.1414-1.2628 1.7-.7893 1.36.0729.1093.1882-.0183 2.8535-.607 1.5421-.2794 1.8396-.3157.8318.3886.091.3946-.3278.8075-1.967.4857-2.3072.4614-3.4364.8136-.0425.0304.0486.0607 1.5482.1457.6618.0364h1.621l3.0175.2247.7892.522.4736.6376-.079.4857-1.2142.6193-1.6393-.3886-3.825-.9107-1.3113-.3279h-.1822v.1093l1.0929 1.0686 2.0035 1.8092 2.5075 2.3314.1275.5768-.3218.4554-.34-.0486-2.2039-1.6575-.85-.7468-1.9246-1.621h-.1275v.17l.4432.6496 2.3436 3.5214.1214 1.0807-.17.3521-.6071.2125-.6679-.1214-1.3721-1.9246L14.38 17.959l-1.1414-1.9428-.1397.079-.674 7.2552-.3156.3703-.7286.2793-.6071-.4614-.3218-.7468.3218-1.4753.3886-1.9246.3157-1.53.2853-1.9004.17-.6314-.0121-.0425-.1397.0182-1.4328 1.9672-2.1796 2.9446-1.7243 1.8456-.4128.164-.7164-.3704.0667-.6618.4008-.5889 2.386-3.0357 1.4389-1.882.929-1.0868-.0062-.1579h-.0546l-6.3385 4.1164-1.1293.1457-.4857-.4554.0608-.7467.2307-.2429 1.9064-1.3114Z"/>
  </symbol>

  <symbol id="logo-gemini" viewBox="0 0 24 24">
    <path d="M11.04 19.32Q12 21.51 12 24q0-2.49.93-4.68.96-2.19 2.58-3.81t3.81-2.55Q21.51 12 24 12q-2.49 0-4.68-.93a12.3 12.3 0 0 1-3.81-2.58 12.3 12.3 0 0 1-2.58-3.81Q12 2.49 12 0q0 2.49-.96 4.68-.93 2.19-2.55 3.81a12.3 12.3 0 0 1-3.81 2.58Q2.49 12 0 12q2.49 0 4.68.96 2.19.93 3.81 2.55t2.55 3.81"/>
  </symbol>

  <symbol id="logo-copilot" viewBox="0 0 24 24">
    <path d="M23.922 16.997C23.061 18.492 18.063 22.02 12 22.02 5.937 22.02.939 18.492.078 16.997A.641.641 0 0 1 0 16.741v-2.869a.883.883 0 0 1 .053-.22c.372-.935 1.347-2.292 2.605-2.656.167-.429.414-1.055.644-1.517a10.098 10.098 0 0 1-.052-1.086c0-1.331.282-2.499 1.132-3.368.397-.406.89-.717 1.474-.952C7.255 2.937 9.248 1.98 11.978 1.98c2.731 0 4.767.957 6.166 2.093.584.235 1.077.546 1.474.952.85.869 1.132 2.037 1.132 3.368 0 .368-.014.733-.052 1.086.23.462.477 1.088.644 1.517 1.258.364 2.233 1.721 2.605 2.656a.841.841 0 0 1 .053.22v2.869a.641.641 0 0 1-.078.256Zm-11.75-5.992h-.344a4.359 4.359 0 0 1-.355.508c-.77.947-1.918 1.492-3.508 1.492-1.725 0-2.989-.359-3.782-1.259a2.137 2.137 0 0 1-.085-.104L4 11.746v6.585c1.435.779 4.514 2.179 8 2.179 3.486 0 6.565-1.4 8-2.179v-6.585l-.098-.104s-.033.045-.085.104c-.793.9-2.057 1.259-3.782 1.259-1.59 0-2.738-.545-3.508-1.492a4.359 4.359 0 0 1-.355-.508Zm2.328 3.25c.549 0 1 .451 1 1v2c0 .549-.451 1-1 1-.549 0-1-.451-1-1v-2c0-.549.451-1 1-1Zm-5 0c.549 0 1 .451 1 1v2c0 .549-.451 1-1 1-.549 0-1-.451-1-1v-2c0-.549.451-1 1-1Zm3.313-6.185c.136 1.057.403 1.913.878 2.497.442.544 1.134.938 2.344.938 1.573 0 2.292-.337 2.657-.751.384-.435.558-1.15.558-2.361 0-1.14-.243-1.847-.705-2.319-.477-.488-1.319-.862-2.824-1.025-1.487-.161-2.192.138-2.533.529-.269.307-.437.808-.438 1.578v.021c0 .265.021.562.063.893Zm-1.626 0c.042-.331.063-.628.063-.894v-.02c-.001-.77-.169-1.271-.438-1.578-.341-.391-1.046-.69-2.533-.529-1.505.163-2.347.537-2.824 1.025-.462.472-.705 1.179-.705 2.319 0 1.211.175 1.926.558 2.361.365.414 1.084.751 2.657.751 1.21 0 1.902-.394 2.344-.938.475-.584.742-1.44.878-2.497Z"/>
  </symbol>

  <symbol id="logo-perplexity" viewBox="0 0 24 24">
    <path d="M22.3977 7.0896h-2.3106V.0676l-7.5094 6.3542V.1577h-1.1554v6.1966L4.4904 0v7.0896H1.6023v10.3976h2.8882V24l6.932-6.3591v6.2005h1.1554v-6.0469l6.9318 6.1807v-6.4879h2.8882V7.0896zm-3.4657-4.531v4.531h-5.355l5.355-4.531zm-13.2862.0676 4.8691 4.4634H5.6458V2.6262zM2.7576 16.332V8.245h7.8476l-6.1149 6.1147v1.9723H2.7576zm2.8882 5.0404v-3.8852h.0001v-2.6488l5.7763-5.7764v7.0111l-5.7764 5.2993zm12.7086.0248-5.7766-5.1509V9.0618l5.7766 5.7766v6.5588zm2.8882-5.0652h-1.733v-1.9723L13.3948 8.245h7.8478v8.087z"/>
  </symbol>

  <symbol id="logo-deepseek" viewBox="0 0 24 24">
    <path d="M2.3 13.6c0-3.1 2.5-5.6 5.6-5.6 1.3 0 2.5.4 3.5 1.2.6-.5 1.7-1.2 3.2-1.2 2.1 0 3.3 1.1 3.9 2 .5-.3 1.3-.7 2.2-.7.4 0 .7.3.7.7 0 .4-.3.7-.7.7-.7 0-1.3.3-1.7.6.2.5.3 1.1.3 1.7 0 2.6-2.1 4.7-4.7 4.7h-7c-3.2 0-5.3-1.7-5.3-4.1zm13.6-1.2c.5 0 .9-.4.9-.9s-.4-.9-.9-.9-.9.4-.9.9.4.9.9.9z"/>
  </symbol>

  <symbol id="logo-firefox" viewBox="0 0 24 24">
    <path d="M8.824 7.287c.008 0 .004 0 0 0zm-2.8-1.4c.006 0 .003 0 0 0zm16.754 2.161c-.505-1.215-1.53-2.528-2.333-2.943.654 1.283 1.033 2.57 1.177 3.53l.002.02c-1.314-3.278-3.544-4.6-5.366-7.477-.091-.147-.184-.292-.273-.446a3.545 3.545 0 01-.13-.24 2.118 2.118 0 01-.172-.46.03.03 0 00-.027-.03.038.038 0 00-.021 0l-.006.001a.037.037 0 00-.01.005L15.624 0c-2.585 1.515-3.657 4.168-3.932 5.856a6.197 6.197 0 00-2.305.587.297.297 0 00-.147.37c.057.162.24.24.396.17a5.622 5.622 0 012.008-.523l.067-.005a5.847 5.847 0 011.957.222l.095.03a5.816 5.816 0 01.616.228c.08.036.16.073.238.112l.107.055a5.835 5.835 0 01.368.211 5.953 5.953 0 012.034 2.104c-.62-.437-1.733-.868-2.803-.681 4.183 2.09 3.06 9.292-2.737 9.02a5.164 5.164 0 01-1.513-.292 4.42 4.42 0 01-.538-.232c-1.42-.735-2.593-2.121-2.74-3.806 0 0 .537-2 3.845-2 .357 0 1.38-.998 1.398-1.287-.005-.095-2.029-.9-2.817-1.677-.422-.416-.622-.616-.8-.767a3.47 3.47 0 00-.301-.227 5.388 5.388 0 01-.032-2.842c-1.195.544-2.124 1.403-2.8 2.163h-.006c-.46-.584-.428-2.51-.402-2.913-.006-.025-.343.176-.389.206-.406.29-.787.616-1.136.974-.397.403-.76.839-1.085 1.303a9.816 9.816 0 00-1.562 3.52c-.003.013-.11.487-.19 1.073-.013.09-.026.181-.037.272a7.8 7.8 0 00-.069.667l-.002.034-.023.387-.001.06C.386 18.795 5.593 24 12.016 24c5.752 0 10.527-4.176 11.463-9.661.02-.149.035-.298.052-.448.232-1.994-.025-4.09-.753-5.844z"/>
  </symbol>

  <symbol id="logo-chrome" viewBox="0 0 24 24">
    <path d="M12 0C8.21 0 4.831 1.757 2.632 4.501l3.953 6.848A5.454 5.454 0 0 1 12 6.545h10.691A12 12 0 0 0 12 0zM1.931 5.47A11.943 11.943 0 0 0 0 12c0 6.012 4.42 10.991 10.189 11.864l3.953-6.847a5.45 5.45 0 0 1-6.865-2.29zm13.342 2.166a5.446 5.446 0 0 1 1.45 7.09l.002.001h-.002l-5.344 9.257c.206.01.413.016.621.016 6.627 0 12-5.373 12-12 0-1.54-.29-3.011-.818-4.364zM12 16.364a4.364 4.364 0 1 1 0-8.728 4.364 4.364 0 0 1 0 8.728Z"/>
  </symbol>

  <symbol id="logo-gcp" viewBox="0 0 24 24">
    <path d="M12.19 2.38a9.344 9.344 0 0 0-9.234 6.893c.053-.02-.055.013 0 0-3.875 2.551-3.922 8.11-.247 10.941l.006-.007-.007.03a6.717 6.717 0 0 0 4.077 1.356h5.173l.03.03h5.192c6.687.053 9.376-8.605 3.835-12.35a9.365 9.365 0 0 0-2.821-4.552l-.043.043.006-.05A9.344 9.344 0 0 0 12.19 2.38zm-.358 4.146c1.244-.04 2.518.368 3.486 1.15a5.186 5.186 0 0 1 1.862 4.078v.518c3.53-.07 3.53 5.262 0 5.193h-5.193l-.008.009v-.04H6.785a2.59 2.59 0 0 1-1.067-.23h.001a2.597 2.597 0 1 1 3.437-3.437l3.013-3.012A6.747 6.747 0 0 0 8.11 8.24c.018-.01.04-.026.054-.023a5.186 5.186 0 0 1 3.67-1.69z"/>
  </symbol>

  <symbol id="logo-cursor" viewBox="0 0 24 24">
    <path d="M11.503.131 1.891 5.678a.84.84 0 0 0-.42.726v11.188c0 .3.162.575.42.724l9.609 5.55a1 1 0 0 0 .998 0l9.61-5.55a.84.84 0 0 0 .42-.724V6.404a.84.84 0 0 0-.42-.726L12.497.131a1.01 1.01 0 0 0-.996 0M2.657 6.338h18.55c.263 0 .43.287.297.515L12.23 22.918c-.062.107-.229.064-.229-.06V12.335a.59.59 0 0 0-.295-.51l-9.11-5.257c-.109-.063-.064-.23.061-.23"/>
  </symbol>

  <!-- Generic glyphs -->
  <symbol id="icon-shield" viewBox="0 0 24 24">
    <path d="M12 1.5 4 4.5v6.2c0 5 3.4 9.6 8 11.3 4.6-1.7 8-6.3 8-11.3V4.5l-8-3zm-1.1 15.2-4.1-4.1 1.4-1.4 2.7 2.7 5.6-5.6 1.4 1.4-7 7z"/>
  </symbol>
  <symbol id="icon-alert" viewBox="0 0 24 24">
    <path d="M1 21h22L12 2 1 21zm12-3h-2v-2h2v2zm0-4h-2v-5h2v5z"/>
  </symbol>
  <symbol id="icon-redo" viewBox="0 0 24 24">
    <path d="M18.4 10.6C16.5 8.6 13.9 7.5 11 7.5c-4.1 0-7.6 2.7-8.8 6.3L4.6 14.5c.9-2.7 3.4-4.5 6.4-4.5 1.9 0 3.6.8 4.9 2L13 15h8V7l-2.6 3.6z"/>
  </symbol>
  <symbol id="icon-person" viewBox="0 0 24 24">
    <path d="M12 12a4 4 0 1 0-4-4 4 4 0 0 0 4 4zm0 2c-3.3 0-10 1.7-10 5v3h20v-3c0-3.3-6.7-5-10-5z"/>
  </symbol>
  <symbol id="icon-building" viewBox="0 0 24 24">
    <path d="M3 21h8V3H3v18zm2-16h4v2H5V5zm0 4h4v2H5V9zm0 4h4v2H5v-2zm0 4h4v2H5v-2zM13 7h8v14h-8V7zm2 2h4v2h-4V9zm0 4h4v2h-4v-2zm0 4h4v2h-4v-2z"/>
  </symbol>
  <symbol id="icon-database" viewBox="0 0 24 24">
    <ellipse cx="12" cy="5" rx="9" ry="3"/>
    <path d="M3 5v6c0 1.7 4 3 9 3s9-1.3 9-3V5c0 1.7-4 3-9 3S3 6.7 3 5z"/>
    <path d="M3 12v6c0 1.7 4 3 9 3s9-1.3 9-3v-6c0 1.7-4 3-9 3s-9-1.3-9-3z"/>
  </symbol>
  <symbol id="icon-cloud-run" viewBox="0 0 24 24">
    <path d="M18.4 10.4a6.5 6.5 0 0 0-12.7 1A4.5 4.5 0 0 0 6 20h12a5 5 0 0 0 .4-9.6zM10 16l-1.4-1.4L11.2 12 8.6 9.4 10 8l4 4-4 4z"/>
  </symbol>
  <symbol id="icon-eu-star" viewBox="0 0 24 24">
    <path d="M12 2.5 13 5h3l-2.5 2 1 3-2.5-2-2.5 2 1-3L8 5h3z"/>
  </symbol>
  <symbol id="icon-plug" viewBox="0 0 24 24">
    <path d="M16 7V3h-2v4h-4V3H8v4H6v5c0 2.8 2 5 5 5v5h2v-5c3 0 5-2.2 5-5V7h-2z"/>
  </symbol>
  <symbol id="icon-doc" viewBox="0 0 24 24">
    <path d="M14 2H6a2 2 0 0 0-2 2v16a2 2 0 0 0 2 2h12a2 2 0 0 0 2-2V8l-6-6zm4 18H6V4h7v5h5v11zM8 12h8v2H8zm0 4h8v2H8z"/>
  </symbol>
  <symbol id="icon-lock" viewBox="0 0 24 24">
    <path d="M18 8h-1V6a5 5 0 0 0-10 0v2H6a2 2 0 0 0-2 2v10a2 2 0 0 0 2 2h12a2 2 0 0 0 2-2V10a2 2 0 0 0-2-2zM9 6a3 3 0 0 1 6 0v2H9V6zm3 12a2 2 0 1 1 0-4 2 2 0 0 1 0 4z"/>
  </symbol>
  <symbol id="icon-chart" viewBox="0 0 24 24">
    <path d="M4 20h4V10H4v10zm6 0h4V4h-4v16zm6 0h4v-6h-4v6z"/>
  </symbol>
  <symbol id="icon-bubble" viewBox="0 0 24 24">
    <path d="M20 2H4a2 2 0 0 0-2 2v18l4-4h14a2 2 0 0 0 2-2V4a2 2 0 0 0-2-2zM7 9h10v2H7V9zm7 5H7v-2h7v2z"/>
  </symbol>
</defs>

<!-- ============================================================ -->
<!-- TITLE BAND -->
<!-- ============================================================ -->
<text x="70" y="72" font-size="42" font-weight="700" fill="#141413">Seer</text>
<text x="160" y="72" font-size="24" font-weight="500" fill="#3D3D3A">— visibility &amp; guardrails for employee AI, without surveillance</text>
<rect x="70" y="88" width="340" height="4" rx="2" fill="url(#title-underline)"/>
<text x="70" y="124" font-size="16" fill="#5F5E5A">How data flows: from the tools employees already use, through the Seer coach, to the insights each party is allowed to see.</text>

<!-- Column headers -->
<text x="70"   y="186" font-size="14" font-weight="600" fill="#3D3D3A" letter-spacing="0.6">1 · WHERE EMPLOYEES WORK WITH AI</text>
<text x="640"  y="186" font-size="14" font-weight="600" fill="#3D3D3A" letter-spacing="0.6">2 · SEER COACH &amp; INGEST · on Google Cloud</text>
<text x="1220" y="186" font-size="14" font-weight="600" fill="#3D3D3A" letter-spacing="0.6">3 · WHO SEES WHAT</text>

<!-- ============================================================ -->
<!-- COLUMN 1 — Employee surfaces (x = 70 .. 570, width 500) -->
<!-- ============================================================ -->

<!-- Card: Browser extension -->
<rect x="70" y="210" width="500" height="340" rx="16" fill="#F7FAFD" stroke="#185FA5" stroke-width="0.9"/>
<rect x="70" y="210" width="500" height="46" rx="16" fill="#E6F1FB"/>
<rect x="70" y="238" width="500" height="18" fill="#E6F1FB"/>
<text x="94" y="238" font-size="15" font-weight="600" fill="#0C447C">Browser extension</text>
<use href="#logo-firefox" x="410" y="222" width="22" height="22" fill="#FF7139"/>
<use href="#logo-chrome"  x="440" y="222" width="22" height="22" fill="#4285F4"/>
<text x="470" y="238" font-size="12" fill="#185FA5">Firefox · Chrome</text>

<text x="94" y="282" font-size="13" fill="#3D3D3A">Rides along inside the chat UIs employees already use:</text>

<!-- 6 LLM logo tiles: 3x2 grid, each 148x66, inner padding 22 x 24 -->
<g font-size="12" fill="#3D3D3A">
  <!-- Row 1 -->
  <g transform="translate(92 302)">
    <rect width="148" height="66" rx="10" fill="#FFFFFF" stroke="#D7DBE0" stroke-width="0.8"/>
    <use href="#logo-openai" x="14" y="19" width="28" height="28" fill="#74AA9C"/>
    <text x="50" y="32" font-weight="600" fill="#141413">ChatGPT</text>
    <text x="50" y="50" font-size="11" fill="#5F5E5A">OpenAI</text>
  </g>
  <g transform="translate(248 302)">
    <rect width="148" height="66" rx="10" fill="#FFFFFF" stroke="#D7DBE0" stroke-width="0.8"/>
    <use href="#logo-claude" x="14" y="19" width="28" height="28" fill="#D97757"/>
    <text x="50" y="32" font-weight="600" fill="#141413">Claude</text>
    <text x="50" y="50" font-size="11" fill="#5F5E5A">Anthropic</text>
  </g>
  <g transform="translate(404 302)">
    <rect width="148" height="66" rx="10" fill="#FFFFFF" stroke="#D7DBE0" stroke-width="0.8"/>
    <use href="#logo-gemini" x="14" y="19" width="28" height="28" fill="#4796E3"/>
    <text x="50" y="32" font-weight="600" fill="#141413">Gemini</text>
    <text x="50" y="50" font-size="11" fill="#5F5E5A">Google</text>
  </g>
  <!-- Row 2 -->
  <g transform="translate(92 380)">
    <rect width="148" height="66" rx="10" fill="#FFFFFF" stroke="#D7DBE0" stroke-width="0.8"/>
    <use href="#logo-copilot" x="14" y="19" width="28" height="28" fill="#24292E"/>
    <text x="50" y="32" font-weight="600" fill="#141413">Copilot</text>
    <text x="50" y="50" font-size="11" fill="#5F5E5A">Microsoft</text>
  </g>
  <g transform="translate(248 380)">
    <rect width="148" height="66" rx="10" fill="#FFFFFF" stroke="#D7DBE0" stroke-width="0.8"/>
    <use href="#logo-perplexity" x="14" y="19" width="28" height="28" fill="#20808D"/>
    <text x="50" y="32" font-weight="600" fill="#141413">Perplexity</text>
    <text x="50" y="50" font-size="11" fill="#5F5E5A">AI search</text>
  </g>
  <g transform="translate(404 380)">
    <rect width="148" height="66" rx="10" fill="#FFFFFF" stroke="#D7DBE0" stroke-width="0.8"/>
    <use href="#logo-deepseek" x="14" y="19" width="28" height="28" fill="#4D6BFE"/>
    <text x="50" y="32" font-weight="600" fill="#141413">DeepSeek</text>
    <text x="50" y="50" font-size="11" fill="#5F5E5A">Open models</text>
  </g>
</g>

<text x="94" y="478" font-size="12" fill="#5F5E5A">Nothing to change in the employee's workflow — the extension</text>
<text x="94" y="495" font-size="12" fill="#5F5E5A">rides along with the existing chat. Same guardrails, every vendor.</text>
<rect x="94" y="510" width="340" height="26" rx="13" fill="#E6F1FB" stroke="#185FA5" stroke-width="0.5"/>
<text x="259" y="527" text-anchor="middle" font-size="11.5" font-weight="600" fill="#0C447C">MV2 (Firefox) + MV3 (Chrome) · one install per browser</text>

<!-- Card: Open WebUI (our hosted) -->
<rect x="70" y="580" width="500" height="130" rx="16" fill="#F8F5FB" stroke="#534AB7" stroke-width="0.9"/>
<rect x="70" y="580" width="500" height="42" rx="16" fill="#EEEDFE"/>
<rect x="70" y="606" width="500" height="16" fill="#EEEDFE"/>
<text x="94" y="608" font-size="15" font-weight="600" fill="#3C3489">Seer Chat · our hosted AI workspace</text>
<use href="#icon-bubble" x="502" y="590" width="24" height="24" fill="#534AB7"/>
<text x="94" y="648" font-size="13" fill="#3D3D3A">Open WebUI fork with the coach baked in — pre-flight block,</text>
<text x="94" y="666" font-size="13" fill="#3D3D3A">post-flight flags and follow-ups, without an extension.</text>
<rect x="94" y="680" width="240" height="22" rx="11" fill="#EEEDFE" stroke="#534AB7" stroke-width="0.5"/>
<text x="214" y="696" text-anchor="middle" font-size="11" font-weight="600" fill="#3C3489">Cloud Run · any OpenAI-compatible model</text>

<!-- Footer: IDE coach coming -->
<rect x="70" y="740" width="500" height="64" rx="14" fill="#FAFAF8" stroke="#A9A8A2" stroke-width="0.9" stroke-dasharray="6 4"/>
<use href="#logo-cursor" x="94"  y="756" width="26" height="26" fill="#141413"/>
<text x="132" y="768" font-size="13" font-weight="600" fill="#141413">Code coach</text>
<text x="132" y="786" font-size="12" fill="#5F5E5A">Cursor, Claude Code, VS Code agents</text>
<rect x="468" y="762" width="84" height="22" rx="11" fill="#F1EFE8" stroke="#A9A8A2" stroke-width="0.5"/>
<text x="510" y="778" text-anchor="middle" font-size="11" font-weight="700" fill="#5F5E5A" letter-spacing="0.4">NEXT</text>

<!-- ============================================================ -->
<!-- COLUMN 2 — Seer coach + backend (x = 640 .. 1140, width 500) -->
<!-- ============================================================ -->

<text x="640" y="210" font-size="13" fill="#5F5E5A">Every message is inspected — the coach can step in three ways:</text>

<!-- Pre-flight -->
<rect x="640" y="226" width="500" height="80" rx="12" fill="#FDF1F1" stroke="#B94A4A" stroke-width="0.9"/>
<circle cx="680" cy="266" r="22" fill="#FBDBDB"/>
<use href="#icon-shield" x="662" y="248" width="36" height="36" fill="#8E2D2D"/>
<text x="716" y="260" font-size="15" font-weight="600" fill="#8E2D2D">Pre-flight block</text>
<text x="716" y="280" font-size="12" fill="#993C3C">Stops policy violations before they reach the LLM —</text>
<text x="716" y="296" font-size="12" fill="#993C3C">no secrets, PII or banned-topic leaks leave the browser.</text>

<!-- Post-flight -->
<rect x="640" y="322" width="500" height="80" rx="12" fill="#FFF7E6" stroke="#B07C10" stroke-width="0.9"/>
<circle cx="680" cy="362" r="22" fill="#FBEBC5"/>
<use href="#icon-alert" x="662" y="344" width="36" height="36" fill="#7A5408"/>
<text x="716" y="356" font-size="15" font-weight="600" fill="#633806">Post-flight flag</text>
<text x="716" y="376" font-size="12" fill="#854F0B">Catches hallucinations, sycophancy and risky replies —</text>
<text x="716" y="392" font-size="12" fill="#854F0B">warns the user before they act on the answer.</text>

<!-- Follow-up -->
<rect x="640" y="418" width="500" height="80" rx="12" fill="#E1F5EE" stroke="#0F6E56" stroke-width="0.9"/>
<circle cx="680" cy="458" r="22" fill="#C5E9DB"/>
<use href="#icon-redo" x="662" y="440" width="36" height="36" fill="#085041"/>
<text x="716" y="452" font-size="15" font-weight="600" fill="#085041">Follow-up nudge</text>
<text x="716" y="472" font-size="12" fill="#0F6E56">Auto-sends a clarifying user message to push the model</text>
<text x="716" y="488" font-size="12" fill="#0F6E56">toward a better answer — optional, per policy.</text>

<!-- Ingest arrow from coach actions down to backend -->
<line x1="890" y1="510" x2="890" y2="560" marker-end="url(#arrow)" stroke="#534AB7" stroke-width="2" fill="none"/>
<text x="900" y="540" font-size="12" font-style="italic" fill="#534AB7">events (redacted)</text>

<!-- Backend card on Google Cloud -->
<rect x="620" y="570" width="540" height="240" rx="18" fill="#EEEDFE" stroke="#534AB7" stroke-width="0.9"/>
<rect x="620" y="570" width="540" height="46" rx="18" fill="#E2DEFA"/>
<rect x="620" y="596" width="540" height="20" fill="#E2DEFA"/>
<use href="#logo-gcp" x="638" y="578" width="30" height="30" fill="#4285F4"/>
<text x="676" y="600" font-size="15" font-weight="600" fill="#3C3489">Seer backend · hosted on Google Cloud, in the EU</text>
<rect x="1010" y="584" width="134" height="22" rx="11" fill="#FFFFFF" stroke="#534AB7" stroke-width="0.6"/>
<use href="#icon-eu-star" x="1017" y="585" width="20" height="20" fill="#534AB7"/>
<text x="1040" y="600" font-size="11.5" font-weight="700" fill="#3C3489" letter-spacing="0.4">europe-west1</text>

<!-- Three backend components -->
<g>
  <g transform="translate(640 632)">
    <rect width="160" height="86" rx="12" fill="#FFFFFF" stroke="#534AB7" stroke-width="0.6"/>
    <use href="#icon-cloud-run" x="14" y="14" width="26" height="26" fill="#3C3489"/>
    <text x="50" y="30" font-size="13" font-weight="600" fill="#3C3489">Cloud Run</text>
    <text x="14" y="58" font-size="12" fill="#534AB7">Ingest API</text>
    <text x="14" y="74" font-size="12" fill="#534AB7">(FastAPI)</text>
  </g>
  <g transform="translate(820 632)">
    <rect width="160" height="86" rx="12" fill="#FFFFFF" stroke="#534AB7" stroke-width="0.6"/>
    <use href="#icon-database" x="14" y="14" width="26" height="26" fill="#3C3489"/>
    <text x="50" y="30" font-size="13" font-weight="600" fill="#3C3489">Firestore</text>
    <text x="14" y="58" font-size="12" fill="#534AB7">Per-user sessions,</text>
    <text x="14" y="74" font-size="12" fill="#534AB7">encrypted events</text>
  </g>
  <g transform="translate(1000 632)">
    <rect width="140" height="86" rx="12" fill="#FFFFFF" stroke="#534AB7" stroke-width="0.6"/>
    <use href="#icon-lock" x="14" y="14" width="26" height="26" fill="#3C3489"/>
    <text x="50" y="30" font-size="13" font-weight="600" fill="#3C3489">Cloud KMS</text>
    <text x="14" y="58" font-size="12" fill="#534AB7">Per-user keys</text>
    <text x="14" y="74" font-size="12" fill="#534AB7">employer ≠ user</text>
  </g>
</g>

<!-- Insights engine strip -->
<rect x="640" y="732" width="500" height="64" rx="12" fill="#FFFFFF" stroke="#534AB7" stroke-width="0.6"/>
<use href="#icon-chart" x="656" y="748" width="30" height="30" fill="#3C3489"/>
<text x="698" y="762" font-size="13" font-weight="600" fill="#3C3489">/exec/insights — LLM-generated aggregate insights</text>
<text x="698" y="780" font-size="12" fill="#534AB7">Runs only over non-personal aggregates · min. cohort size (k-anonymity)</text>

<!-- ============================================================ -->
<!-- COLUMN 3 — Who sees what (x = 1200 .. 1580, width 380) -->
<!-- ============================================================ -->

<!-- Employee (personal zone) -->
<rect x="1200" y="210" width="380" height="260" rx="16" fill="#F7FAFD" stroke="#185FA5" stroke-width="0.9"/>
<rect x="1318" y="200" width="144" height="22" rx="11" fill="#E6F1FB" stroke="#185FA5" stroke-width="0.7"/>
<text x="1390" y="216" text-anchor="middle" font-size="11" font-weight="700" fill="#0C447C" letter-spacing="0.6">PERSONAL ZONE</text>
<g transform="translate(1220 236)">
  <circle r="22" cx="22" cy="22" fill="#E6F1FB" stroke="#185FA5" stroke-width="0.7"/>
  <use href="#icon-person" x="8" y="8" width="28" height="28" fill="#185FA5"/>
</g>
<text x="1276" y="258" font-size="17" font-weight="600" fill="#0C447C">The employee</text>
<text x="1276" y="280" font-size="12.5" fill="#185FA5">sees their own sessions and coach feedback</text>

<g font-size="12" fill="#185FA5">
  <text x="1220" y="318" font-weight="600" fill="#0C447C">They get:</text>
  <text x="1220" y="340">• Full transcripts of their own AI conversations</text>
  <text x="1220" y="360">• Personal policy feedback (“this prompt leaked secrets”)</text>
  <text x="1220" y="380">• Their own skill/usage signals — not shared upwards</text>
  <text x="1220" y="400">• Right to erasure, export, access (GDPR Art. 15–17)</text>
</g>
<rect x="1220" y="420" width="210" height="28" rx="14" fill="#E6F1FB" stroke="#185FA5" stroke-width="0.6"/>
<use href="#icon-lock" x="1228" y="425" width="18" height="18" fill="#0C447C"/>
<text x="1252" y="438" font-size="12" font-weight="600" fill="#0C447C">Per-user encryption key</text>

<!-- Privacy firewall -->
<line x1="1200" y1="500" x2="1580" y2="500" stroke="#E24B4A" stroke-width="6" stroke-linecap="round" opacity="0.85"/>
<text x="1390" y="522" text-anchor="middle" font-size="13" font-weight="700" fill="#A93A3A" letter-spacing="0.5">PRIVACY FIREWALL · no personal data crosses</text>

<!-- Employer (aggregate zone) -->
<rect x="1200" y="540" width="380" height="270" rx="16" fill="#EFF8F0" stroke="#3B6D11" stroke-width="0.9"/>
<rect x="1318" y="530" width="144" height="22" rx="11" fill="#D5E8C4" stroke="#3B6D11" stroke-width="0.7"/>
<text x="1390" y="546" text-anchor="middle" font-size="11" font-weight="700" fill="#27500A" letter-spacing="0.6">AGGREGATE ZONE</text>
<g transform="translate(1220 566)">
  <circle r="22" cx="22" cy="22" fill="#EAF3DE" stroke="#3B6D11" stroke-width="0.7"/>
  <use href="#icon-building" x="8" y="8" width="28" height="28" fill="#3B6D11"/>
</g>
<text x="1276" y="588" font-size="17" font-weight="600" fill="#27500A">The employer</text>
<text x="1276" y="610" font-size="12.5" fill="#3B6D11">Sees anonymous, aggregated insights</text>

<g font-size="12" fill="#3B6D11">
  <text x="1220" y="648" font-weight="600" fill="#27500A">They get:</text>
  <text x="1220" y="670">• Team &amp; org usage: what AI is used for, where, how much</text>
  <text x="1220" y="690">• Policy-violation rates, cost, risky-pattern trends</text>
  <text x="1220" y="710">• Emerging skills &amp; cross-team curiosity signals</text>
  <text x="1220" y="730">• AI-generated insights over the aggregates (no re-ID)</text>
</g>
<rect x="1220" y="750" width="232" height="28" rx="14" fill="#D5E8C4" stroke="#3B6D11" stroke-width="0.6"/>
<use href="#icon-chart" x="1228" y="755" width="18" height="18" fill="#27500A"/>
<text x="1252" y="768" font-size="12" font-weight="600" fill="#27500A">Aggregate dashboard only</text>

<!-- EU-only footnote under card -->
<text x="1220" y="796" font-size="11" fill="#5F5E5A" font-style="italic">EU: default; non-EU customers may opt into individual view.</text>

<!-- ============================================================ -->
<!-- CROSS-COLUMN ARROWS -->
<!-- ============================================================ -->

<!-- Col 1 → Col 2 (employee surfaces feed the coach) -->
<path d="M570 350 C 600 350 600 266 638 266" fill="none" stroke="#185FA5" stroke-width="2" marker-end="url(#arrow)"/>
<path d="M570 640 C 600 640 600 362 638 362" fill="none" stroke="#534AB7" stroke-width="2" marker-end="url(#arrow)"/>
<path d="M570 770 C 600 770 600 458 638 458" fill="none" stroke="#7A5408" stroke-width="1.8" stroke-dasharray="5 4" marker-end="url(#arrow)"/>

<!-- Col 2 → Col 3 (personal view — top) -->
<path d="M1160 680 C 1180 560 1190 440 1198 340" fill="none" stroke="#0C447C" stroke-width="2"   marker-end="url(#arrow)"/>

<!-- Col 2 → Col 3 (aggregate view — bottom) -->
<path d="M1160 760 C 1180 720 1190 680 1198 650" fill="none" stroke="#27500A" stroke-width="2.2" marker-end="url(#arrow)"/>

<!-- ============================================================ -->
<!-- BOTTOM PRINCIPLES BAND -->
<!-- ============================================================ -->
<rect x="70" y="870" width="1490" height="150" rx="16" fill="#FAFAF8" stroke="#A9A8A2" stroke-width="0.9"/>
<text x="94" y="900" font-size="13" font-weight="700" fill="#3D3D3A" letter-spacing="0.6">CORE PRINCIPLES</text>

<!-- 5 principles in a row: width ~280, gap ~20 -->
<g>
  <g transform="translate(94 920)">
    <circle r="20" cx="20" cy="32" fill="#EEEDFE" stroke="#534AB7" stroke-width="0.6"/>
    <use href="#icon-eu-star" x="6" y="18" width="28" height="28" fill="#3C3489"/>
    <text x="54" y="28" font-size="13" font-weight="600" fill="#141413">EU-hosted by default</text>
    <text x="54" y="48" font-size="12" fill="#5F5E5A">Google Cloud europe-west1 —</text>
    <text x="54" y="64" font-size="12" fill="#5F5E5A">data never leaves the region.</text>
  </g>
  <g transform="translate(394 920)">
    <circle r="20" cx="20" cy="32" fill="#FDF1F1" stroke="#B94A4A" stroke-width="0.6"/>
    <use href="#icon-lock" x="6" y="18" width="28" height="28" fill="#8E2D2D"/>
    <text x="54" y="28" font-size="13" font-weight="600" fill="#141413">Privacy by default</text>
    <text x="54" y="48" font-size="12" fill="#5F5E5A">Per-user encryption keys;</text>
    <text x="54" y="64" font-size="12" fill="#5F5E5A">individual sessions stay individual.</text>
  </g>
  <g transform="translate(694 920)">
    <circle r="20" cx="20" cy="32" fill="#EFF8F0" stroke="#3B6D11" stroke-width="0.6"/>
    <use href="#icon-chart" x="6" y="18" width="28" height="28" fill="#27500A"/>
    <text x="54" y="28" font-size="13" font-weight="600" fill="#141413">Aggregate-only for employers</text>
    <text x="54" y="48" font-size="12" fill="#5F5E5A">Min. cohort k = 10.</text>
    <text x="54" y="64" font-size="12" fill="#5F5E5A">Non-EU customers may opt in.</text>
  </g>
  <g transform="translate(994 920)">
    <circle r="20" cx="20" cy="32" fill="#E6F1FB" stroke="#185FA5" stroke-width="0.6"/>
    <use href="#icon-plug" x="6" y="18" width="28" height="28" fill="#0C447C"/>
    <text x="54" y="28" font-size="13" font-weight="600" fill="#141413">Works with any LLM</text>
    <text x="54" y="48" font-size="12" fill="#5F5E5A">ChatGPT, Claude, Gemini, Copilot,</text>
    <text x="54" y="64" font-size="12" fill="#5F5E5A">Perplexity, DeepSeek, or your own.</text>
  </g>
  <g transform="translate(1294 920)">
    <circle r="20" cx="20" cy="32" fill="#F1EFE8" stroke="#5F5E5A" stroke-width="0.6"/>
    <use href="#icon-doc" x="6" y="18" width="28" height="28" fill="#3D3D3A"/>
    <text x="54" y="28" font-size="13" font-weight="600" fill="#141413">Art. 28 DPA processor</text>
    <text x="54" y="48" font-size="12" fill="#5F5E5A">Contract-bound scope;</text>
    <text x="54" y="64" font-size="12" fill="#5F5E5A">DPIA-ready from day one.</text>
  </g>
</g>

<!-- ============================================================ -->
<!-- FOOTER CAPTION -->
<!-- ============================================================ -->
<text x="800" y="1070" text-anchor="middle" font-size="13" fill="#5F5E5A">seerai.covenance.ai · Covenance · pre-release prototype — data flow as of 2026-04</text>

</svg>
